{
  "accessors": [
    {
      "bufferView": 2,
      "componentType": 5126,
      "count": 895,
      "max": [
        -6.584662914276123,
        -20.6046142578125,
        64.92133331298828
      ],
      "min": [
        -27.314146041870117,
        -31.431758880615234,
        -0.029220299795269966
      ],
      "type": "VEC3"
    },
    {
      "bufferView": 0,
      "componentType": 5125,
      "count": 1814,
      "type": "SCALAR"
    },
    {
      "bufferView": 2,
      "byteOffset": 10740,
      "componentType": 5126,
      "count": 552,
      "max": [
        -9.349628448486328,
        -22.04877471923828,
        64.92133331298828
      ],
      "min": [
        -20.16255760192871,
        -27.69643783569336,
        -0.029220299795269966
      ],
      "type": "VEC3"
    },
    {
      "bufferView": 2,
      "byteOffset": 17364,
      "componentType": 5126,
      "count": 552,
      "max": [
        0.4629612863063812,
        0.8863785266876221,
        1.8996099535139834e-16
      ],
      "min": [
        -0.4629612863063812,
        -0.8863785266876221,
        -1.8996099535139834e-16
      ],
      "type": "VEC3"
    },
    {
      "bufferView": 0,
      "byteOffset": 7256,
      "componentType": 5125,
      "count": 1590,
      "type": "SCALAR"
    },
    {
      "bufferView": 2,
      "byteOffset": 23988,
      "componentType": 5126,
      "count": 15810,
      "max": [
        171.10569763183594,
        436.0271911621094,
        111.24569702148438
      ],
      "min": [
        -167.80050659179688,
        -31.36477279663086,
        -0.19255520403385162
      ],
      "type": "VEC3"
    },
    {
      "bufferView": 0,
      "byteOffset": 13616,
      "componentType": 5125,
      "count": 49280,
      "type": "SCALAR"
    },
    {
      "bufferView": 2,
      "byteOffset": 213708,
      "componentType": 5126,
      "count": 11068,
      "max": [
        -6.747869968414307,
        -20.689857482910156,
        55.93601989746094
      ],
      "min": [
        -27.314146041870117,
        -31.431758880615234,
        18.78697967529297
      ],
      "type": "VEC3"
    },
    {
      "bufferView": 2,
      "byteOffset": 346524,
      "componentType": 5126,
      "count": 11068,
      "max": [
        0.4629612863063812,
        0.8863785266876221,
        2.4085410654296237e-14
      ],
      "min": [
        -0.4629612863063812,
        -0.8863785266876221,
        -2.4085410654296237e-14
      ],
      "type": "VEC3"
    },
    {
      "bufferView": 0,
      "byteOffset": 210736,
      "componentType": 5125,
      "count": 26268,
      "type": "SCALAR"
    },
    {
      "bufferView": 2,
      "byteOffset": 479340,
      "componentType": 5126,
      "count": 11384,
      "max": [
        -6.584662914276123,
        -20.6046142578125,
        56.29029846191406
      ],
      "min": [
        -27.185895919799805,
        -31.36477279663086,
        18.78697967529297
      ],
      "type": "VEC3"
    },
    {
      "bufferView": 2,
      "byteOffset": 615948,
      "componentType": 5126,
      "count": 11384,
      "max": [
        0.4629612863063812,
        0.8863785266876221,
        1.582428010851668e-15
      ],
      "min": [
        -0.4629612863063812,
        -0.8863785266876221,
        -6.055341131132059e-16
      ],
      "type": "VEC3"
    },
    {
      "bufferView": 0,
      "byteOffset": 315808,
      "componentType": 5125,
      "count": 40296,
      "type": "SCALAR"
    },
    {
      "bufferView": 2,
      "byteOffset": 752556,
      "componentType": 5126,
      "count": 66,
      "max": [
        -15.185051918029785,
        -25.096654891967773,
        8.637289047241211
      ],
      "min": [
        -20.03752899169922,
        -27.631134033203125,
        2.2405080795288086
      ],
      "type": "VEC3"
    },
    {
      "bufferView": 2,
      "byteOffset": 753348,
      "componentType": 5126,
      "count": 66,
      "max": [
        0.4629612863063812,
        0.8863785266876221,
        1.589829060489976e-17
      ],
      "min": [
        -0.4629612863063812,
        -0.8863785266876221,
        -1.589829060489976e-17
      ],
      "type": "VEC3"
    },
    {
      "bufferView": 0,
      "byteOffset": 476992,
      "componentType": 5125,
      "count": 150,
      "type": "SCALAR"
    },
    {
      "bufferView": 2,
      "byteOffset": 754140,
      "componentType": 5126,
      "count": 824,
      "max": [
        -7.441145896911621,
        -21.05196189880371,
        64.32987976074219
      ],
      "min": [
        -23.898876190185547,
        -29.64794158935547,
        1.5267560482025146
      ],
      "type": "VEC3"
    },
    {
      "bufferView": 2,
      "byteOffset": 764028,
      "componentType": 5126,
      "count": 824,
      "max": [
        0.4629612863063812,
        0.8863785266876221,
        1.7319640014533302e-16
      ],
      "min": [
        -0.4629612863063812,
        -0.8863785266876221,
        -1.7319640014533302e-16
      ],
      "type": "VEC3"
    },
    {
      "bufferView": 0,
      "byteOffset": 477592,
      "componentType": 5125,
      "count": 2346,
      "type": "SCALAR"
    },
    {
      "bufferView": 2,
      "byteOffset": 773916,
      "componentType": 5126,
      "count": 26,
      "max": [
        -21.699464797973633,
        -28.499174118041992,
        43.925411224365234
      ],
      "min": [
        -27.314146041870117,
        -31.431758880615234,
        41.07701873779297
      ],
      "type": "VEC3"
    },
    {
      "bufferView": 2,
      "byteOffset": 774228,
      "componentType": 5126,
      "count": 26,
      "max": [
        0.4629612863063812,
        0.8863785266876221,
        1.4085550431397156e-16
      ],
      "min": [
        -0.4629612863063812,
        -0.8863785266876221,
        -1.4085550431397156e-16
      ],
      "type": "VEC3"
    },
    {
      "bufferView": 0,
      "byteOffset": 486976,
      "componentType": 5125,
      "count": 66,
      "type": "SCALAR"
    },
    {
      "bufferView": 2,
      "byteOffset": 774540,
      "componentType": 5126,
      "count": 4,
      "max": [
        -7.90062952041626,
        -21.29195213317871,
        51.674339294433594
      ],
      "min": [
        -11.321227073669434,
        -23.07855224609375,
        30.781770706176758
      ],
      "type": "VEC3"
    },
    {
      "bufferView": 0,
      "byteOffset": 487240,
      "componentType": 5125,
      "count": 4,
      "type": "SCALAR"
    },
    {
      "bufferView": 2,
      "byteOffset": 774588,
      "componentType": 5126,
      "count": 206,
      "max": [
        -10.782550811767578,
        -22.797199249267578,
        58.33551025390625
      ],
      "min": [
        -18.80413818359375,
        -26.986927032470703,
        38.50695037841797
      ],
      "type": "VEC3"
    },
    {
      "bufferView": 2,
      "byteOffset": 777060,
      "componentType": 5126,
      "count": 206,
      "max": [
        0.4629612863063812,
        0.8863785266876221,
        4.2086440023440715e-17
      ],
      "min": [
        -0.4629612863063812,
        -0.8863785266876221,
        -4.2086440023440715e-17
      ],
      "type": "VEC3"
    },
    {
      "bufferView": 0,
      "byteOffset": 487256,
      "componentType": 5125,
      "count": 570,
      "type": "SCALAR"
    },
    {
      "bufferView": 2,
      "byteOffset": 779532,
      "componentType": 5126,
      "count": 65532,
      "max": [
        171.10569763183594,
        436.0271911621094,
        111.24569702148438
      ],
      "min": [
        -167.80050659179688,
        -1.590636968612671,
        -0.19255520403385162
      ],
      "type": "VEC3"
    },
    {
      "bufferView": 2,
      "byteOffset": 1565916,
      "componentType": 5126,
      "count": 65532,
      "max": [
        1.0,
        1.0,
        1.0
      ],
      "min": [
        -1.0,
        -1.0,
        -1.0
      ],
      "type": "VEC3"
    },
    {
      "bufferView": 1,
      "componentType": 5126,
      "count": 65532,
      "max": [
        96238880.0,
        46847920.0
      ],
      "min": [
        -96238880.0,
        -46847920.0
      ],
      "type": "VEC2"
    },
    {
      "bufferView": 0,
      "byteOffset": 489536,
      "componentType": 5125,
      "count": 103662,
      "type": "SCALAR"
    },
    {
      "bufferView": 2,
      "byteOffset": 2352300,
      "componentType": 5126,
      "count": 8366,
      "max": [
        155.7740936279297,
        427.81170654296875,
        110.93340301513672
      ],
      "min": [
        -148.8625030517578,
        -1.4995330572128296,
        -0.0025834839325398207
      ],
      "type": "VEC3"
    },
    {
      "bufferView": 2,
      "byteOffset": 2452692,
      "componentType": 5126,
      "count": 8366,
      "max": [
        1.0,
        1.0,
        1.0
      ],
      "min": [
        -1.0,
        -1.0,
        -1.0
      ],
      "type": "VEC3"
    },
    {
      "bufferView": 1,
      "byteOffset": 524256,
      "componentType": 5126,
      "count": 8366,
      "max": [
        427.81170654296875,
        357.4859924316406
      ],
      "min": [
        -427.81170654296875,
        -350.1434020996094
      ],
      "type": "VEC2"
    },
    {
      "bufferView": 0,
      "byteOffset": 904184,
      "componentType": 5125,
      "count": 12564,
      "type": "SCALAR"
    },
    {
      "bufferView": 2,
      "byteOffset": 2553084,
      "componentType": 5126,
      "count": 191,
      "max": [
        168.552001953125,
        313.73150634765625,
        103.96219635009766
      ],
      "min": [
        69.07539367675781,
        0.1866154968738556,
        3.6884260177612305
      ],
      "type": "VEC3"
    },
    {
      "bufferView": 2,
      "byteOffset": 2555376,
      "componentType": 5126,
      "count": 191,
      "max": [
        0.5363664031028748,
        0.8439857959747314,
        7.821187750778336e-07
      ],
      "min": [
        -0.5363664031028748,
        -0.8439857959747314,
        -7.821187750778336e-07
      ],
      "type": "VEC3"
    },
    {
      "bufferView": 1,
      "byteOffset": 591184,
      "componentType": 5126,
      "count": 191,
      "max": [
        0.700442910194397,
        0.994255781173706
      ],
      "min": [
        0.12454690039157867,
        0.6758764982223511
      ],
      "type": "VEC2"
    },
    {
      "bufferView": 1,
      "byteOffset": 592712,
      "componentType": 5126,
      "count": 191,
      "max": [
        0.700442910194397,
        0.994255781173706
      ],
      "min": [
        0.12454690039157867,
        0.6758764982223511
      ],
      "type": "VEC2"
    },
    {
      "bufferView": 0,
      "byteOffset": 954440,
      "componentType": 5125,
      "count": 192,
      "type": "SCALAR"
    }
  ],
  "asset": {
    "extras": {
      "author": "Katydid (https://sketchfab.com/Katydid.)",
      "license": "CC-BY-4.0 (http://creativecommons.org/licenses/by/4.0/)",
      "source": "https://sketchfab.com/3d-models/anime-classroom-retextured-0814b068d5af485a9ac7fb77d6492e78",
      "title": "Anime classroom retextured"
    },
    "generator": "Sketchfab-17.1.0",
    "version": "2.0"
  },
  "bufferViews": [
    {
      "buffer": 0,
      "byteLength": 955208,
      "name": "floatBufferViews",
      "target": 34963
    },
    {
      "buffer": 0,
      "byteLength": 594240,
      "byteOffset": 955208,
      "byteStride": 8,
      "name": "floatBufferViews",
      "target": 34962
    },
    {
      "buffer": 0,
      "byteLength": 2557668,
      "byteOffset": 1549448,
      "byteStride": 12,
      "name": "floatBufferViews",
      "target": 34962
    }
  ],
  "buffers": [
    {
      "byteLength": 4107116,
      "uri": "scene.bin"
    }
  ],
  "extensionsUsed": [
    "KHR_materials_specular"
  ],
  "images": [
    {
      "uri": "textures/auto_1_baseColor.jpeg"
    },
    {
      "uri": "textures/auto_4_baseColor.png"
    }
  ],
  "materials": [
    {
      "name": "edge_color19137255",
      "pbrMetallicRoughness": {
        "metallicFactor": 0.0,
        "roughnessFactor": 0.6
      }
    },
    {
      "name": "Sumele_Hair",
      "pbrMetallicRoughness": {
        "baseColorFactor": [
          0.0745098,
          0.0509804,
          0.027451,
          1.0
        ],
        "metallicFactor": 0.0,
        "roughnessFactor": 0.6
      }
    },
    {
      "alphaMode": "BLEND",
      "name": "edge_color000255",
      "pbrMetallicRoughness": {
        "baseColorFactor": [
          1.0,
          1.0,
          1.0,
          0.0
        ],
        "metallicFactor": 0.0,
        "roughnessFactor": 0.6
      }
    },
    {
      "name": "Sumele_Dress3",
      "pbrMetallicRoughness": {
        "baseColorFactor": [
          0.0,
          0.117647,
          0.4,
          1.0
        ],
        "metallicFactor": 0.0,
        "roughnessFactor": 0.6
      }
    },
    {
      "name": "Sumele_Dress",
      "pbrMetallicRoughness": {
        "baseColorFactor": [
          0.988235,
          0.709804,
          0.0352941,
          1.0
        ],
        "metallicFactor": 0.0,
        "roughnessFactor": 0.6
      }
    },
    {
      "name": "Sumele_Shoe",
      "pbrMetallicRoughness": {
        "baseColorFactor": [
          0.823529,
          0.721569,
          0.658824,
          1.0
        ],
        "metallicFactor": 0.0,
        "roughnessFactor": 0.6
      }
    },
    {
      "name": "Sumele_Skin",
      "pbrMetallicRoughness": {
        "baseColorFactor": [
          0.54902,
          0.309804,
          0.227451,
          1.0
        ],
        "metallicFactor": 0.0,
        "roughnessFactor": 0.6
      }
    },
    {
      "name": "Sumele_Dress2",
      "pbrMetallicRoughness": {
        "baseColorFactor": [
          0.882353,
          0.623529,
          0.0313725,
          1.0
        ],
        "metallicFactor": 0.0,
        "roughnessFactor": 0.6
      }
    },
    {
      "name": "edge_color030102255",
      "pbrMetallicRoughness": {
        "metallicFactor": 0.0,
        "roughnessFactor": 0.6
      }
    },
    {
      "name": "Sumele_Jewelry",
      "pbrMetallicRoughness": {
        "baseColorFactor": [
          0.662745,
          0.662745,
          0.662745,
          1.0
        ],
        "metallicFactor": 0.0,
        "roughnessFactor": 0.6
      }
    },
    {
      "name": "auto_1",
      "pbrMetallicRoughness": {
        "baseColorTexture": {
          "index": 0
        },
        "metallicFactor": 0.0,
        "roughnessFactor": 0.6
      }
    },
    {
      "alphaMode": "BLEND",
      "emissiveFactor": [
        0.16029143897996356,
        0.16029143897996356,
        0.16029143897996356
      ],
      "extensions": {
        "KHR_materials_specular": {
          "specularColorFactor": [
            1.0,
            1.0,
            1.0
          ],
          "specularFactor": 1.0
        }
      },
      "name": "auto_4",
      "pbrMetallicRoughness": {
        "baseColorTexture": {
          "index": 1
        },
        "metallicFactor": 0.0,
        "roughnessFactor": 0.42987249544626593
      }
    }
  ],
  "meshes": [
    {
      "name": "Material3",
      "primitives": [
        {
          "attributes": {
            "POSITION": 0
          },
          "indices": 1,
          "material": 0,
          "mode": 1
        }
      ]
    },
    {
      "name": "Material2",
      "primitives": [
        {
          "attributes": {
            "NORMAL": 3,
            "POSITION": 2
          },
          "indices": 4,
          "material": 1,
          "mode": 4
        }
      ]
    },
    {
      "name": "Material3",
      "primitives": [
        {
          "attributes": {
            "POSITION": 5
          },
          "indices": 6,
          "material": 2,
          "mode": 1
        }
      ]
    },
    {
      "name": "Material2",
      "primitives": [
        {
          "attributes": {
            "NORMAL": 8,
            "POSITION": 7
          },
          "indices": 9,
          "material": 3,
          "mode": 4
        }
      ]
    },
    {
      "name": "Material3",
      "primitives": [
        {
          "attributes": {
            "NORMAL": 11,
            "POSITION": 10
          },
          "indices": 12,
          "material": 4,
          "mode": 4
        }
      ]
    },
    {
      "name": "Material2",
      "primitives": [
        {
          "attributes": {
            "NORMAL": 14,
            "POSITION": 13
          },
          "indices": 15,
          "material": 5,
          "mode": 4
        }
      ]
    },
    {
      "name": "Material2",
      "primitives": [
        {
          "attributes": {
            "NORMAL": 17,
            "POSITION": 16
          },
          "indices": 18,
          "material": 6,
          "mode": 4
        }
      ]
    },
    {
      "name": "Material2",
      "primitives": [
        {
          "attributes": {
            "NORMAL": 20,
            "POSITION": 19
          },
          "indices": 21,
          "material": 7,
          "mode": 4
        }
      ]
    },
    {
      "name": "Material4",
      "primitives": [
        {
          "attributes": {
            "POSITION": 22
          },
          "indices": 23,
          "material": 8,
          "mode": 1
        }
      ]
    },
    {
      "name": "Material2",
      "primitives": [
        {
          "attributes": {
            "NORMAL": 25,
            "POSITION": 24
          },
          "indices": 26,
          "material": 9,
          "mode": 4
        }
      ]
    },
    {
      "name": "Material2",
      "primitives": [
        {
          "attributes": {
            "NORMAL": 28,
            "POSITION": 27,
            "TEXCOORD_0": 29
          },
          "indices": 30,
          "material": 10,
          "mode": 4
        }
      ]
    },
    {
      "name": "Material2",
      "primitives": [
        {
          "attributes": {
            "NORMAL": 32,
            "POSITION": 31,
            "TEXCOORD_0": 33
          },
          "indices": 34,
          "material": 10,
          "mode": 4
        }
      ]
    },
    {
      "name": "Material2",
      "primitives": [
        {
          "attributes": {
            "NORMAL": 36,
            "POSITION": 35,
            "TEXCOORD_0": 37,
            "TEXCOORD_1": 38
          },
          "indices": 39,
          "material": 11,
          "mode": 4
        }
      ]
    }
  ],
  "nodes": [
    {
      "children": [
        1
      ],
      "matrix": [
        1.0,
        0.0,
        0.0,
        0.0,
        0.0,
        2.220446049250313e-16,
        -1.0,
        0.0,
        0.0,
        1.0,
        2.220446049250313e-16,
        0.0,
        0.0,
        0.0,
        0.0,
        1.0
      ],
      "name": "Sketchfab_model"
    },
    {
      "children": [
        2,
        3,
        4,
        5,
        6,
        7,
        8,
        9,
        10,
        11,
        12,
        13,
        14,
        15
      ],
      "name": "Collada visual scene group"
    },
    {
      "mesh": 0,
      "name": "Material3"
    },
    {
      "mesh": 1,
      "name": "Material2"
    },
    {
      "mesh": 2,
      "name": "Material3"
    },
    {
      "mesh": 3,
      "name": "Material2"
    },
    {
      "mesh": 4,
      "name": "Material3"
    },
    {
      "mesh": 5,
      "name": "Material2"
    },
    {
      "mesh": 6,
      "name": "Material2"
    },
    {
      "mesh": 7,
      "name": "Material2"
    },
    {
      "mesh": 8,
      "name": "Material4"
    },
    {
      "mesh": 9,
      "name": "Material2"
    },
    {
      "mesh": 10,
      "name": "Material2"
    },
    {
      "mesh": 11,
      "name": "Material2"
    },
    {
      "mesh": 12,
      "name": "Material2"
    },
    {
      "children": [
        16,
        18
      ],
      "name": "SketchUp"
    },
    {
      "children": [
        17
      ],
      "matrix": [
        -0.8863785,
        -0.4629613,
        6.981725e-18,
        0.0,
        6.188451e-18,
        3.232269e-18,
        1.0,
        0.0,
        -0.4629613,
        0.8863785,
        0.0,
        0.0,
        -118.7691,
        422.0537,
        49.04311,
        1.0
      ],
      "name": "skp_camera_Last_Saved_SketchUp_View"
    },
    {
      "name": "ID1"
    },
    {
      "children": [
        19
      ],
      "matrix": [
        -0.8863785,
        -0.4629613,
        6.981725e-18,
        0.0,
        6.188451e-18,
        3.232269e-18,
        1.0,
        0.0,
        -0.4629613,
        0.8863785,
        0.0,
        0.0,
        -118.7691,
        422.0537,
        49.04311,
        1.0
      ],
      "name": "skp_camera_Scene_1"
    },
    {
      "name": "ID2"
    }
  ],
  "samplers": [
    {
      "magFilter": 9729,
      "minFilter": 9987,
      "wrapS": 10497,
      "wrapT": 10497
    }
  ],
  "scene": 0,
  "scenes": [
    {
      "name": "Sketchfab_Scene",
      "nodes": [
        0
      ]
    }
  ],
  "textures": [
    {
      "sampler": 0,
      "source": 0
    },
    {
      "sampler": 0,
      "source": 1
    }
  ]
}
